# xmcd CD database file
#
# Track frame offsets:
#	150
#	21732
#	41707
#	48840
#	65197
#	78867
#	90390
#	116510
#	124797
#	139675
#	171437
#	187642
#
# Disc length: 2648 seconds
#
# Revision: 2
# Processed by: cddbd v1.5.2PL0 Copyright (c) Steve Scherf et al.
# Submitted via: CDex 1.60beta1-cs1
#
DISCID=9f0a560c
DTITLE=TOMOVSKY - NEGACHOV and POSICOV
DYEAR=1996
DGENRE=Pop
TTITLE0=ネガチョフ＆ポジコフのテーマ
TTITLE1=自家発電
TTITLE2=いらない
TTITLE3=忘却toハピネス
TTITLE4=チーム
TTITLE5=ほめてよ
TTITLE6=年表の色
TTITLE7=意味のない組み合わせはある
TTITLE8=うしろむきでOK!
TTITLE9=ガソリン
TTITLE10=ワルクナイ、ヨワクナイ
TTITLE11=今度はサイゴまで
EXTD=YEAR: 1996
EXTT0=
EXTT1=
EXTT2=
EXTT3=
EXTT4=
EXTT5=
EXTT6=
EXTT7=
EXTT8=
EXTT9=
EXTT10=
EXTT11=
PLAYORDER=
